# xmcd
#
# Track frame offsets:
#	150
#	30700
#	46875
#	64665
#	84592
#	103697
#	118327
#	128767
#	150220
#	169175
#	192150
#	200375
#	222740
#	242182
# Disc length: 3327 seconds
# Revision: 1
# Processed by: cddbd v1.5.1PL0 Copyright (c) Steve Scherf et al.
#
# Submitted via: libkcddb 0.10
#
DISCID=c30cfd0e
DTITLE=Kleeblatt - Dark Isle
DYEAR=1900
DGENRE=
TTITLE0=Dark Isle
TTITLE1=Sherrifmuir 1715
TTITLE2=Wha'll dance wi'Wattie? Skyemans Jig - Disused railway
TTITLE3=Fine young men
TTITLE4=Archibald MacDonald of Keppoch - Mickie Ainsworth
TTITLE5=East Neuk of Fife - Lady MacKenzie of Coull
TTITLE6=Donkey riding
TTITLE7=Bogie's bonnie belle
TTITLE8=Green grow the rushesss - The merry blacksmith/Threee scones of Boxty
TTITLE9=Willie o'Winsbury
TTITLE10=Walter Bulmer's
TTITLE11=Smuggler's life
TTITLE12=The broom o'the Cowdenknowes
TTITLE13=Dark Isle
EXTD=
EXTT0=
EXTT1=
EXTT2=
EXTT3=
EXTT4=
EXTT5=
EXTT6=
EXTT7=
EXTT8=
EXTT9=
EXTT10=
EXTT11=
EXTT12=
EXTT13=
PLAYORDER=
